PathFileType	4	(X/Y/Z)	s05c0201.trc
DataRate	CameraRate	NumFrames	NumMarkers	Units	OrigDataRate	OrigDataStartFrame	OrigNumFrames
200	200	5	50	mm	200	250	2000
Frame#	Time	racr			lacr			c7			jug			rlel			rdr			llel			ldr			s2			lic			ric			lasi			rasi			rpsi			lpsi			rgt			lgt			rth1			rth2			rth3			rth4			rlfc			rmfc			rsh1			rsh2			rsh3			rsh4			rlmal			rmmal			rcal			rtoe			rmt5			lth1			lth2			lth4			lth3			llfc			lmfc			lsh1			lsh2			lsh3			lsh4			llmal			lmmal			lcal			ltoe			lmt5			SBIKE			LBIKE			RBIKE			
		X1	Y1	Z1	X2	Y2	Z2	X3	Y3	Z3	X4	Y4	Z4	X5	Y5	Z5	X6	Y6	Z6	X7	Y7	Z7	X8	Y8	Z8	X9	Y9	Z9	X10	Y10	Z10	X11	Y11	Z11	X12	Y12	Z12	X13	Y13	Z13	X14	Y14	Z14	X15	Y15	Z15	X16	Y16	Z16	X17	Y17	Z17	X18	Y18	Z18	X19	Y19	Z19	X20	Y20	Z20	X21	Y21	Z21	X22	Y22	Z22	X23	Y23	Z23	X24	Y24	Z24	X25	Y25	Z25	X26	Y26	Z26	X27	Y27	Z27	X28	Y28	Z28	X29	Y29	Z29	X30	Y30	Z30	X31	Y31	Z31	X32	Y32	Z32	X33	Y33	Z33	X34	Y34	Z34	X35	Y35	Z35	X36	Y36	Z36	X37	Y37	Z37	X38	Y38	Z38	X39	Y39	Z39	X40	Y40	Z40	X41	Y41	Z41	X42	Y42	Z42	X43	Y43	Z43	X44	Y44	Z44	X45	Y45	Z45	X46	Y46	Z46	X47	Y47	Z47	X48	Y48	Z48	X49	Y49	Z49	X50	Y50	Z50	
250	1.2500	397.513312	1393.898465	-140.690254	402.409509	1411.088619	-431.224993	382.601632	1476.406207	-288.562020	369.367735	1321.503845	-289.445163	498.067142	1156.018059	-40.526271	683.823598	965.935935	-73.234854	476.445253	1154.792106	-538.305137	679.070436	968.042148	-500.245681	-115.504693	1154.855755	-281.141202	34.840148	1175.283868	-424.718045	33.904660	1193.041832	-144.723172	83.653182	1122.935781	-389.868345	76.515023	1134.935103	-170.915267	-85.183087	1203.012647	-243.438199	-81.931469	1203.924706	-328.981990	0.816426	1072.887331	-105.937496	-37.400924	1061.722386	-448.398893	104.680111	1028.854034	-94.714271	193.822036	1024.013360	-95.293369	266.773572	974.693781	-95.648934	204.400611	1056.718005	-109.946183	405.054614	905.616157	-124.952623	391.373133	898.097872	-234.725304	333.089993	820.240285	-101.916016	314.119623	733.563220	-110.802777	258.258179	669.384556	-113.869624	341.822051	722.506209	-134.988232	203.416754	547.286372	-122.318643	219.499639	574.237849	-201.776962	128.544481	520.264874	-167.479039	419.980817	471.264135	-160.601788	317.421415	458.762246	-95.116815	35.785712	939.329607	-470.200971	101.167594	883.848914	-471.556896	132.008874	902.312033	-459.676039	129.739346	797.881791	-474.093335	193.322246	662.220591	-445.270061	186.297224	653.476255	-336.377846	110.765403	562.576340	-465.354612	87.825655	479.139603	-451.260781	24.274272	417.412166	-446.911816	115.943166	466.320877	-428.483312	-29.917548	304.911518	-435.127931	0.549101	327.018698	-358.740185	-97.684833	276.083729	-389.362457	186.556585	201.564685	-402.468278	74.433500	196.193426	-462.229543	-265.380520	894.971923	-286.544801	-53.468346	79.192841	-474.958172	-53.491001	79.151757	-77.398743	
251	1.2550	397.526079	1393.936967	-140.636125	402.463026	1411.152134	-431.141713	382.563387	1476.448843	-288.479107	369.385818	1321.550077	-289.377694	498.137061	1156.058828	-40.496365	683.853945	965.944943	-73.181846	476.516434	1154.873490	-538.278124	679.100038	968.053009	-500.210897	-115.272932	1154.801853	-280.886358	34.843747	1175.243471	-424.667290	33.884673	1192.977830	-144.736232	83.594442	1123.083713	-389.789615	76.503884	1134.910265	-170.920043	-85.202814	1202.931590	-243.378342	-81.956744	1203.933280	-329.009683	0.765317	1072.934508	-105.932778	-37.442652	1061.722242	-448.400677	104.701402	1028.910062	-94.714474	193.838749	1024.094127	-95.286917	266.810234	974.787669	-95.677674	204.404309	1056.822756	-109.944988	405.073335	905.815268	-124.976495	391.383310	898.280217	-234.792775	333.042025	820.433829	-101.991051	314.053953	733.878337	-110.848443	258.196631	669.623368	-113.936266	341.785666	722.697015	-135.037542	203.338583	547.567157	-122.361814	219.462577	574.457007	-201.838631	128.477522	520.574367	-167.545490	419.871425	471.359656	-160.576633	317.269698	458.913817	-95.105090	35.740690	939.309508	-470.212578	101.244924	883.892484	-471.447434	131.963111	902.277883	-459.658552	129.674410	797.845601	-474.068035	193.229266	662.189803	-445.232123	186.212679	653.416387	-336.352215	110.713560	562.505739	-465.343177	87.815835	479.054509	-451.266682	24.315058	417.262091	-446.898413	115.974007	466.226594	-428.456950	-29.834366	304.750686	-435.090706	0.658038	326.873125	-358.720473	-97.581441	275.913417	-389.331888	186.692358	201.450026	-402.482440	74.568110	196.059658	-462.210296	-265.358979	894.963569	-286.599241	-53.475934	79.208413	-474.948099	-53.501099	79.162207	-77.390768	
252	1.2600	397.542628	1393.959478	-140.581904	402.503216	1411.198562	-431.018080	382.532997	1476.472255	-288.391026	369.419758	1321.572361	-289.312064	498.207955	1156.102393	-40.447468	683.863542	965.928589	-73.236665	476.588751	1154.954331	-538.275671	679.119092	968.075311	-500.163884	-115.295508	1154.794003	-280.889455	34.885602	1175.203708	-424.614562	33.895983	1192.933818	-144.741685	83.613016	1123.037872	-389.734801	76.463582	1134.886325	-170.881166	-85.244553	1202.982580	-243.461384	-81.982066	1203.920270	-328.995412	0.734748	1072.962310	-105.915225	-37.464210	1061.700197	-448.396571	104.713781	1028.952211	-94.681544	193.849588	1024.202988	-95.269017	266.829773	974.951521	-95.699944	204.414102	1056.914569	-109.953652	405.117481	906.008048	-125.033987	391.412914	898.454301	-234.841883	332.996013	820.702409	-102.074168	313.992343	734.094035	-110.923654	258.107239	669.829522	-113.988291	341.724723	722.890122	-135.048233	203.241596	547.804990	-122.398583	219.481836	574.666877	-201.866148	128.375958	520.928965	-167.631978	419.761351	471.440791	-160.565010	317.119718	459.079353	-95.106897	35.688386	939.267849	-470.210279	101.198527	883.824531	-471.424087	131.912747	902.205682	-459.648288	129.607978	797.783521	-474.028499	193.145177	662.132611	-445.207267	186.098124	653.376894	-336.342478	110.669682	562.438486	-465.332591	87.838246	478.983402	-451.246715	24.355329	417.119068	-446.892381	115.984486	466.158865	-428.440255	-29.708761	304.613613	-435.097271	0.736340	326.751031	-358.689908	-97.457432	275.734840	-389.300854	186.818831	201.344557	-402.469901	74.730819	195.905190	-462.194313	-265.383929	894.963951	-286.577937	-53.468729	79.197161	-474.949883	-53.526323	79.162903	-77.390671	
253	1.2650	397.549130	1394.026243	-140.512352	402.557968	1411.253157	-430.935481	382.503930	1476.533736	-288.304352	369.444966	1321.619700	-289.243932	498.231756	1156.139033	-40.345689	683.815333	965.898836	-73.414312	476.656950	1155.026034	-538.281752	679.124208	968.105789	-500.076903	-115.322680	1154.787734	-280.893025	34.905595	1175.190670	-424.572571	33.871319	1192.903588	-144.738147	83.625347	1123.015654	-389.674803	76.425955	1134.844480	-170.838982	-85.281956	1202.915758	-243.395319	-82.017943	1203.925144	-328.996128	0.742013	1072.986288	-105.910952	-37.490842	1061.694937	-448.377452	104.727819	1029.010027	-94.655235	193.842910	1024.274091	-95.254221	266.831104	975.076899	-95.724028	204.376239	1057.033460	-109.944154	405.138236	906.216822	-125.086348	391.438847	898.646098	-234.879912	332.946641	821.004312	-102.137322	313.937509	734.286255	-110.997110	258.003010	670.100389	-114.033912	341.651550	723.060723	-135.062608	203.165198	548.052989	-122.472719	219.433922	574.905526	-201.906109	128.300870	521.253152	-167.664676	419.633956	471.536990	-160.571876	316.971849	459.270508	-95.099963	35.629825	939.237973	-470.197674	101.118631	883.793536	-471.423205	131.838919	902.163773	-459.631434	129.517023	797.747083	-474.018498	193.047884	662.078773	-445.182666	185.978892	653.338514	-336.326551	110.633152	562.363624	-465.325239	87.840562	478.886693	-451.254133	24.404134	416.982791	-446.863622	115.978988	466.013539	-428.372738	-29.562386	304.430799	-435.063293	1.000782	326.456488	-358.743908	-97.312236	275.512909	-389.278922	186.978359	201.204961	-402.451865	74.891349	195.732478	-462.196592	-265.507286	895.000803	-286.473766	-53.472352	79.196630	-474.950198	-53.494966	79.155377	-77.379633	
254	1.2700	397.557912	1394.083867	-140.441675	402.614219	1411.320419	-430.835240	382.469984	1476.575899	-288.220180	369.478743	1321.657184	-289.173111	498.242826	1156.166831	-40.248328	683.742804	965.852411	-73.713012	476.696497	1155.068029	-538.291513	679.100087	968.126155	-499.963304	-115.370486	1154.797884	-280.911506	34.946037	1175.159235	-424.557706	33.881181	1192.864902	-144.737286	83.641633	1122.979704	-389.619696	76.379963	1134.799502	-170.823555	-85.313896	1202.983498	-243.456165	-82.045801	1203.935863	-328.998059	0.724225	1073.010211	-105.921160	-37.508592	1061.701984	-448.370178	104.736422	1029.050898	-94.627042	193.855965	1024.372642	-95.260953	266.851858	975.220653	-95.747756	204.349092	1057.130980	-109.945250	405.158782	906.448837	-125.154846	391.482306	898.853861	-234.925125	332.930745	821.233253	-102.227712	313.895380	734.549725	-111.003678	257.913112	670.405062	-114.095247	341.606100	723.267384	-135.057929	203.062121	548.338986	-122.488877	219.370259	575.161669	-201.952915	128.211290	521.533711	-167.716368	419.476107	471.665291	-160.553925	316.808773	459.468223	-95.125669	35.563987	939.202007	-470.198977	101.050788	883.717399	-471.400319	131.764852	902.090862	-459.624239	129.406050	797.676385	-474.010103	192.941160	662.039055	-445.166282	185.876827	653.280225	-336.326553	110.583513	562.271437	-465.312153	87.864511	478.771473	-451.240467	24.455765	416.836137	-446.837513	116.012333	465.920712	-428.362106	-29.417400	304.236600	-435.099634	1.194919	326.241353	-358.772837	-97.149373	275.275573	-389.258910	187.159798	201.060292	-402.475680	75.066355	195.555867	-462.195859	-265.422353	894.972883	-286.506088	-53.465099	79.197075	-474.945043	-53.483679	79.155174	-77.385055	
